<?xml version="1.0" standalone="no"?>
<!DOCTYPE svg PUBLIC "-//W3C//DTD SVG 20010904//EN"
 "http://www.w3.org/TR/2001/REC-SVG-20010904/DTD/svg10.dtd">
<svg version="1.0" xmlns="http://www.w3.org/2000/svg"
 width="500.000000pt" height="500.000000pt" viewBox="0 0 500.000000 500.000000"
 preserveAspectRatio="xMidYMid meet">
<metadata>
Created by potrace 1.11, written by Peter Selinger 2001-2013
</metadata>
<g transform="translate(0.000000,500.000000) scale(0.100000,-0.100000)"
fill="#000000" stroke="none">
<path d="M0 2500 l0 -2500 2500 0 2500 0 0 2500 0 2500 -2500 0 -2500 0 0
-2500z m1853 1559 c54 -28 57 -39 57 -254 0 -175 -3 -203 -18 -221 -44 -55
-109 -59 -158 -10 l-34 34 0 197 0 197 34 34 c36 36 77 44 119 23z m479 -18
l33 -29 0 -207 0 -207 -33 -29 c-37 -33 -77 -37 -122 -14 -16 8 -34 24 -40 34
-6 12 -10 101 -10 218 0 173 3 201 18 219 43 53 105 59 154 15z m438 14 c49
-25 54 -46 58 -225 5 -196 -4 -242 -51 -270 -47 -29 -90 -26 -129 9 l-33 29 0
207 0 207 33 29 c37 33 77 37 122 14z m476 -19 l34 -34 0 -197 0 -197 -34 -34
c-24 -24 -43 -34 -65 -34 -39 0 -87 24 -101 49 -13 26 -13 406 0 431 14 27 59
49 99 50 25 0 42 -9 67 -34z m134 -1536 l0 -890 -890 0 -890 0 0 890 0 890
890 0 890 0 0 -890z m-1959 752 c43 -48 37 -112 -15 -154 -18 -15 -46 -18
-221 -18 -215 0 -226 3 -254 57 -26 50 0 122 53 144 11 4 108 7 214 6 l194 -2
29 -33z m2605 4 c24 -24 34 -43 34 -65 0 -39 -24 -87 -49 -101 -26 -13 -406
-13 -432 0 -25 14 -49 62 -49 101 0 22 10 41 34 65 l34 34 197 0 197 0 34 -34z
m-43 -427 c75 -21 101 -112 48 -171 l-29 -33 -207 0 -207 0 -29 33 c-51 57
-27 150 43 171 45 13 334 13 381 0z m-2577 -17 c45 -36 57 -99 28 -140 -32
-46 -61 -52 -252 -52 -170 0 -181 1 -213 23 -58 39 -64 115 -12 163 26 24 28
24 227 24 175 0 204 -3 222 -18z m15 -470 c43 -48 37 -112 -15 -154 -18 -15
-47 -18 -219 -18 -217 0 -234 4 -257 60 -22 54 7 123 60 143 8 3 102 5 208 4
l194 -2 29 -33z m2605 4 c40 -40 45 -83 14 -133 -26 -44 -67 -53 -245 -53 -82
0 -167 5 -188 11 -44 12 -77 57 -77 105 0 35 31 81 64 94 11 5 106 9 210 9
l188 1 34 -34z m-2620 -444 c52 -42 58 -106 15 -154 l-29 -33 -207 0 -207 0
-29 33 c-43 48 -37 112 15 154 18 15 46 18 221 18 175 0 203 -3 221 -18z
m2605 8 c25 -14 49 -62 49 -101 0 -22 -10 -41 -34 -65 l-34 -34 -197 0 -197 0
-34 34 c-24 24 -34 43 -34 65 0 38 23 86 47 100 24 14 408 14 434 1z m-2158
-461 c54 -28 57 -39 57 -254 0 -175 -3 -203 -18 -221 -44 -55 -109 -59 -158
-10 l-34 34 0 197 0 197 34 34 c36 36 77 44 119 23z m479 -18 l33 -29 0 -207
0 -207 -33 -29 c-48 -43 -112 -37 -154 15 -15 18 -18 47 -18 219 0 117 4 206
10 217 29 54 113 65 162 21z m445 9 c44 -26 53 -67 53 -245 0 -178 -9 -219
-53 -245 -47 -29 -90 -26 -129 9 l-33 29 0 207 0 207 33 29 c39 35 82 38 129
9z m469 -14 l34 -34 0 -197 0 -197 -34 -34 c-24 -24 -43 -34 -65 -34 -39 0
-87 24 -101 49 -13 26 -13 406 0 431 14 27 59 49 99 50 25 0 42 -9 67 -34z"/>
</g>
</svg>
